
<svg enable-background="new 0 0 512 512" version="1.1" viewBox="0 0 512 512" xml:space="preserve" xmlns="http://www.w3.org/2000/svg">

	
		<path d="m406 211h-60c-8.284 0-15 6.716-15 15s6.716 15 15 15h9.188l-39.188 117.57-39.188-117.57h9.188c8.284 0 15-6.716 15-15s-6.716-15-15-15h-60c-8.284 0-15 6.716-15 15s6.716 15 15 15h9.188l-39.188 117.57-39.188-117.57h9.188c8.284 0 15-6.716 15-15s-6.716-15-15-15h-60c-8.284 0-15 6.716-15 15s6.716 15 15 15h19.188l56.581 169.74c2.043 6.126 7.774 10.257 14.231 10.257s12.188-4.131 14.23-10.257l45.77-137.31 45.77 137.31c2.042 6.126 7.773 10.257 14.23 10.257s12.188-4.131 14.23-10.257l56.582-169.74h19.188c8.284 0 15-6.716 15-15s-6.716-15-15-15z"/>
	


	
		<path d="M467,0H45C20.187,0,0,20.187,0,45v422c0,24.813,20.187,45,45,45h422c24.813,0,45-20.187,45-45V45    C512,20.187,491.813,0,467,0z M30,45c0-8.271,6.729-15,15-15h286v90H30V45z M482,467c0,8.271-6.729,15-15,15H45    c-8.271,0-15-6.729-15-15V150h452V467z M482,120H361V30h106c8.271,0,15,6.729,15,15V120z"/>
	


	
		<path d="m106 60h-31c-8.284 0-15 6.716-15 15s6.716 15 15 15h31c8.284 0 15-6.716 15-15s-6.716-15-15-15z"/>
	


	
		<path d="m196 60h-30c-8.284 0-15 6.716-15 15s6.716 15 15 15h30c8.284 0 15-6.716 15-15s-6.716-15-15-15z"/>
	


	
		<path d="m286 60h-30c-8.284 0-15 6.716-15 15s6.716 15 15 15h30c8.284 0 15-6.716 15-15s-6.716-15-15-15z"/>
	
















</svg>

